<?xml version="1.0" encoding="UTF-8"?>
<!DOCTYPE svg PUBLIC "-//W3C//DTD SVG 1.1//EN" "http://www.w3.org/Graphics/SVG/1.1/DTD/svg11.dtd">
<svg xmlns="http://www.w3.org/2000/svg" version="1.1" width="1024px" height="1024px" style="shape-rendering:geometricPrecision; text-rendering:geometricPrecision; image-rendering:optimizeQuality; fill-rule:evenodd; clip-rule:evenodd" xmlns:xlink="http://www.w3.org/1999/xlink">
<g><path style="opacity:1" fill="#fefefe" d="M -0.5,-0.5 C 340.833,-0.5 682.167,-0.5 1023.5,-0.5C 1023.5,340.833 1023.5,682.167 1023.5,1023.5C 682.167,1023.5 340.833,1023.5 -0.5,1023.5C -0.5,682.167 -0.5,340.833 -0.5,-0.5 Z"/></g>
<g><path style="opacity:1" fill="#f6f8f3" d="M 511.5,122.5 C 515.167,122.5 518.833,122.5 522.5,122.5C 518.764,134.639 512.931,145.639 505,155.5C 498.764,161.701 491.264,165.368 482.5,166.5C 479.658,166.199 476.658,165.366 473.5,164C 480.832,160.33 487.499,155.663 493.5,150C 486.695,153.576 479.695,157.076 472.5,160.5C 470.637,150.046 473.97,141.546 482.5,135C 491.287,128.602 500.953,124.435 511.5,122.5 Z"/></g>
<g><path style="opacity:1" fill="#f6f9f4" d="M 558.5,131.5 C 566.833,131.5 575.167,131.5 583.5,131.5C 578.726,142.797 571.726,152.63 562.5,161C 554.864,166.982 546.197,170.482 536.5,171.5C 531.51,171.586 526.844,170.419 522.5,168C 532.181,164.659 541.181,159.993 549.5,154C 539.997,157.222 530.331,160.389 520.5,163.5C 519.376,160 519.876,156.667 522,153.5C 525.833,148.333 530.333,143.833 535.5,140C 542.847,136.054 550.513,133.221 558.5,131.5 Z"/></g>
<g><path style="opacity:1" fill="#f6f9f3" d="M 445.5,138.5 C 447.167,138.5 448.833,138.5 450.5,138.5C 449.648,155.026 443.315,168.859 431.5,180C 427.174,183.061 422.507,183.894 417.5,182.5C 422.216,179.451 425.882,175.451 428.5,170.5C 428.333,170.167 428.167,169.833 428,169.5C 424.133,173.702 419.967,177.535 415.5,181C 414.668,181.688 414.002,181.521 413.5,180.5C 410.421,166.487 414.754,155.32 426.5,147C 432.62,143.469 438.953,140.636 445.5,138.5 Z"/></g>
<g><path style="opacity:1" fill="#f6f9f3" d="M 594.5,155.5 C 612.435,155.32 629.435,159.153 645.5,167C 646.451,167.718 646.617,168.551 646,169.5C 633.605,180.964 619.438,189.464 603.5,195C 587.541,198.925 573.207,195.759 560.5,185.5C 575.602,182.808 590.602,179.641 605.5,176C 589.778,176.238 574.112,177.405 558.5,179.5C 559.984,173.495 563.318,168.662 568.5,165C 576.602,159.985 585.269,156.819 594.5,155.5 Z"/></g>
<g><path style="opacity:1" fill="#f6f8f3" d="M 369.5,148.5 C 370.75,148.577 371.583,149.244 372,150.5C 378.327,167.342 378.993,184.342 374,201.5C 371.09,209.243 365.923,214.909 358.5,218.5C 358.167,218.167 357.833,217.833 357.5,217.5C 361.333,207.839 363.166,197.839 363,187.5C 360.443,198.673 356.61,209.34 351.5,219.5C 346.554,215.284 343.388,209.95 342,203.5C 340.098,187.541 344.431,173.541 355,161.5C 359.432,156.56 364.265,152.227 369.5,148.5 Z"/></g>
<g><path style="opacity:1" fill="#f7f9f4" d="M 470.5,178.5 C 483.284,177.485 494.617,180.985 504.5,189C 509,193.5 513.5,198 518,202.5C 518.483,203.448 518.649,204.448 518.5,205.5C 505.128,210.958 491.462,211.791 477.5,208C 467.052,205.047 460.052,198.547 456.5,188.5C 466.058,189.063 475.392,190.563 484.5,193C 476.099,189.071 467.433,186.071 458.5,184C 462.451,181.855 466.451,180.021 470.5,178.5 Z"/></g>
<g><path style="opacity:1" fill="#f6f9f4" d="M 408.5,198.5 C 428.615,197.315 445.949,203.649 460.5,217.5C 453.136,224.24 444.469,228.407 434.5,230C 420.02,232.502 406.687,229.502 394.5,221C 392.262,218.896 391.262,216.562 391.5,214C 401.912,213.385 412.245,213.385 422.5,214C 419.403,212.39 416.069,211.39 412.5,211C 405.516,210.168 398.516,209.501 391.5,209C 396.292,203.944 401.959,200.444 408.5,198.5 Z"/></g>
<g><path style="opacity:1" fill="#f7f9f4" d="M 533.5,191.5 C 548.1,189.717 559.266,195.05 567,207.5C 569.274,211.714 571.274,216.047 573,220.5C 573.833,223.818 572.499,225.485 569,225.5C 553.74,223.877 541.74,216.877 533,204.5C 531.855,201.568 531.022,198.568 530.5,195.5C 531.873,195.343 533.207,195.51 534.5,196C 541.029,200.582 547.696,204.582 554.5,208C 547.362,202.461 540.362,196.961 533.5,191.5 Z"/></g>
<g><path style="opacity:1" fill="#f7f9f4" d="M 696.5,193.5 C 707.344,192.523 717.011,195.356 725.5,202C 717.381,211.062 707.381,217.062 695.5,220C 688.625,221.405 682.292,220.239 676.5,216.5C 682.974,215.132 689.307,213.298 695.5,211C 688.561,211.726 681.561,212.226 674.5,212.5C 675.466,207.078 678.133,202.578 682.5,199C 687.017,196.445 691.684,194.612 696.5,193.5 Z"/></g>
<g><path style="opacity:1" fill="#f6f9f4" d="M 602.5,207.5 C 612.553,206.428 621.553,208.928 629.5,215C 638.129,222.763 643.796,232.263 646.5,243.5C 628.479,245.064 613.646,239.064 602,225.5C 598.657,221.655 597.491,217.322 598.5,212.5C 618.825,222.344 619.492,221.344 600.5,209.5C 601.243,208.818 601.909,208.151 602.5,207.5 Z"/></g>
<g><path style="opacity:1" fill="#f7f9f4" d="M 742.5,220.5 C 755.917,220.454 767.584,225.12 777.5,234.5C 765.453,245.347 751.453,249.181 735.5,246C 730.609,244.484 726.776,241.65 724,237.5C 723.333,236.5 723.333,235.5 724,234.5C 732.613,237.217 741.447,238.05 750.5,237C 743.801,236.217 737.135,235.217 730.5,234C 722.834,233.366 721.834,230.699 727.5,226C 732.299,223.238 737.299,221.404 742.5,220.5 Z"/></g>
<g><path style="opacity:1" fill="#f6f9f3" d="M 319.5,188.5 C 320.822,188.33 321.989,188.663 323,189.5C 324.849,211.609 319.849,231.943 308,250.5C 302.065,257.77 294.565,262.603 285.5,265C 284.056,265.781 282.723,265.614 281.5,264.5C 289.655,252.191 296.155,239.191 301,225.5C 292.5,237.833 284,250.167 275.5,262.5C 273.3,260.747 272.133,258.414 272,255.5C 269.955,240.305 273.955,226.972 284,215.5C 294.052,203.921 305.885,194.921 319.5,188.5 Z"/></g>
<g><path style="opacity:1" fill="#f6f9f4" d="M 662.5,227.5 C 678.475,230.643 687.975,240.309 691,256.5C 692.722,262.466 693.222,268.466 692.5,274.5C 672.591,269.259 660.591,256.593 656.5,236.5C 656.218,233.958 657.051,231.958 659,230.5C 665.012,236.186 670.346,242.519 675,249.5C 675.718,250.451 676.551,250.617 677.5,250C 672.55,242.716 667.217,235.716 661.5,229C 662.056,228.617 662.389,228.117 662.5,227.5 Z"/></g>
<g><path style="opacity:1" fill="#f6f9f4" d="M 338.5,240.5 C 345.175,240.334 351.842,240.5 358.5,241C 362.556,241.351 366.223,242.685 369.5,245C 357.895,262.805 341.895,268.805 321.5,263C 320.289,262.107 320.289,261.274 321.5,260.5C 327.833,258 334.167,255.5 340.5,253C 333.456,253.262 326.79,255.096 320.5,258.5C 320.688,254.036 322.688,250.202 326.5,247C 330.434,244.536 334.434,242.369 338.5,240.5 Z"/></g>
<g><path style="opacity:1" fill="#f7f9f4" d="M 771.5,252.5 C 791.43,252.195 808.263,259.195 822,273.5C 822.688,274.332 822.521,274.998 821.5,275.5C 807.691,282.746 793.025,285.579 777.5,284C 767.335,282.155 759.668,276.822 754.5,268C 763.554,270.053 772.721,271.553 782,272.5C 782.75,271.874 783.584,271.374 784.5,271C 774.719,268.793 765.052,266.293 755.5,263.5C 755.744,260.737 757.077,258.571 759.5,257C 763.432,254.972 767.432,253.472 771.5,252.5 Z"/></g>
<g><path style="opacity:1" fill="#f6f9f3" d="M 238.5,229.5 C 240.017,229.511 241.184,230.177 242,231.5C 244.612,237.725 246.945,244.058 249,250.5C 250.505,259.113 250.839,267.78 250,276.5C 248.252,285.369 243.585,292.036 236,296.5C 235.5,296.333 235,296.167 234.5,296C 235.717,294.352 236.55,292.519 237,290.5C 238.072,284.859 238.405,279.193 238,273.5C 235.806,279.622 234.14,285.956 233,292.5C 232.804,294.286 231.971,295.619 230.5,296.5C 224.988,291.813 221.822,285.813 221,278.5C 219.524,259.472 225.357,243.139 238.5,229.5 Z"/></g>
<g><path style="opacity:1" fill="#d1e0b4" d="M 584.5,265.5 C 586.265,264.539 588.265,264.205 590.5,264.5C 590.824,271.354 590.491,278.021 589.5,284.5C 589.5,278.167 589.5,271.833 589.5,265.5C 587.833,265.5 586.167,265.5 584.5,265.5 Z"/></g>
<g><path style="opacity:1" fill="#f6f9f4" d="M 710.5,247.5 C 713.52,246.528 716.52,247.028 719.5,249C 728.722,256.269 734.222,265.769 736,277.5C 737.356,285.015 737.523,292.349 736.5,299.5C 713.753,291.991 702.92,276.324 704,252.5C 704.196,250.714 705.029,249.381 706.5,248.5C 712.319,255.455 717.153,263.122 721,271.5C 721.889,272.888 722.389,272.722 722.5,271C 719.372,262.574 715.372,254.741 710.5,247.5 Z"/></g>
<g><path style="opacity:1" fill="#f6f9f3" d="M 202.5,276.5 C 204.017,276.511 205.184,277.177 206,278.5C 211.431,286.91 215.431,295.91 218,305.5C 219.491,314.005 218.157,322.005 214,329.5C 212.622,331.213 210.955,332.547 209,333.5C 209.514,326.206 209.514,318.872 209,311.5C 208.635,316.689 207.968,322.022 207,327.5C 206.64,329.421 205.806,331.088 204.5,332.5C 197.062,327.974 192.896,321.307 192,312.5C 190.755,299.074 194.255,287.074 202.5,276.5 Z"/></g>
<g><path style="opacity:1" fill="#90b744" d="M 584.5,265.5 C 586.167,265.5 587.833,265.5 589.5,265.5C 589.5,271.833 589.5,278.167 589.5,284.5C 588.453,302.213 579.12,311.547 561.5,312.5C 563.347,301.137 567.681,290.804 574.5,281.5C 574.333,281.167 574.167,280.833 574,280.5C 565.961,289.239 559.961,299.239 556,310.5C 548.174,296.495 550.341,284.328 562.5,274C 569.083,269.208 576.417,266.374 584.5,265.5 Z"/></g>
<g><path style="opacity:1" fill="#f7faf4" d="M 292.5,276.5 C 300.928,276.02 308.928,277.52 316.5,281C 306.296,297.287 291.963,302.954 273.5,298C 271.875,297.147 271.542,296.147 272.5,295C 278.421,292.471 284.421,290.137 290.5,288C 283.787,288.291 277.453,290.124 271.5,293.5C 271.167,293.167 270.833,292.833 270.5,292.5C 275.342,283.647 282.675,278.314 292.5,276.5 Z"/></g>
<g><path style="opacity:1" fill="#f7f9f4" d="M 793.5,303.5 C 805.49,303.331 816.49,306.498 826.5,313C 838.945,322.725 849.445,334.225 858,347.5C 858.982,348.759 859.315,350.092 859,351.5C 838.127,356.61 818.294,353.777 799.5,343C 789.629,336.308 783.629,327.142 781.5,315.5C 794.948,322.225 808.615,328.392 822.5,334C 809.549,325.946 796.716,317.779 784,309.5C 783.383,308.551 783.549,307.718 784.5,307C 787.571,305.704 790.571,304.538 793.5,303.5 Z"/></g>
<g><path style="opacity:1" fill="#f7f9f4" d="M 268.5,309.5 C 270.167,309.5 271.833,309.5 273.5,309.5C 268.047,331.619 254.047,344.286 231.5,347.5C 228.771,347.705 226.438,346.872 224.5,345C 231.167,339.667 237.833,334.333 244.5,329C 236.41,331.549 229.41,336.049 223.5,342.5C 222.936,333.125 226.602,325.625 234.5,320C 245.072,313.696 256.405,310.196 268.5,309.5 Z"/></g>
<g><path style="opacity:1" fill="#355a2e" d="M 356.5,292.5 C 380.169,292.333 403.836,292.5 427.5,293C 431.742,294.245 434.242,297.078 435,301.5C 436.759,308.796 434.926,314.963 429.5,320C 413.237,321.455 396.904,321.955 380.5,321.5C 380.5,326.5 380.5,331.5 380.5,336.5C 394.837,336.333 409.171,336.5 423.5,337C 428.292,339.748 430.626,343.915 430.5,349.5C 430.528,355.612 427.861,360.112 422.5,363C 408.504,363.5 394.504,363.667 380.5,363.5C 380.5,369.167 380.5,374.833 380.5,380.5C 397.17,380.333 413.837,380.5 430.5,381C 433.728,382.563 435.895,385.063 437,388.5C 438.13,394.81 436.963,400.644 433.5,406C 431.725,407.439 429.725,408.439 427.5,409C 404.5,409.667 381.5,409.667 358.5,409C 351.994,406.846 348.161,402.346 347,395.5C 346.333,365.167 346.333,334.833 347,304.5C 348.892,299.447 352.058,295.447 356.5,292.5 Z"/></g>
<g><path style="opacity:1" fill="#f6f9f4" d="M 753.5,301.5 C 756.226,301.083 758.726,302.083 761,304.5C 767.725,313.404 770.058,323.404 768,334.5C 767.128,338.943 765.962,343.276 764.5,347.5C 754.868,342.979 749.035,335.312 747,324.5C 746.333,319.167 746.333,313.833 747,308.5C 747.455,305.243 749.121,302.909 752,301.5C 753.47,306.243 755.136,310.909 757,315.5C 757.076,310.469 755.909,305.802 753.5,301.5 Z"/></g>
<g><path style="opacity:1" fill="#33582c" d="M 492.5,290.5 C 509.752,288.534 525.752,292.034 540.5,301C 552.973,311.661 551.973,320.994 537.5,329C 534.594,330.318 531.594,330.652 528.5,330C 516.043,319.171 502.71,317.838 488.5,326C 478.958,334.848 475.791,345.681 479,358.5C 486.93,379.38 501.097,385.213 521.5,376C 532.854,367.769 542.021,369.935 549,382.5C 550.33,389.345 548.164,394.845 542.5,399C 518.585,414.866 494.252,415.532 469.5,401C 447.325,383.144 439.492,360.311 446,332.5C 453.802,309.86 469.302,295.86 492.5,290.5 Z"/></g>
<g><path style="opacity:1" fill="#f6f9f3" d="M 171.5,337.5 C 182.974,344.478 191.474,354.145 197,366.5C 198.418,371.428 198.751,376.428 198,381.5C 197.588,383.997 196.422,385.997 194.5,387.5C 193.582,380.616 191.082,373.95 187,367.5C 186.346,366.304 185.846,366.304 185.5,367.5C 189.801,374.707 191.801,382.374 191.5,390.5C 181.8,388.3 174.966,382.634 171,373.5C 166.434,361.466 166.601,349.466 171.5,337.5 Z"/></g>
<g><path style="opacity:1" fill="#f6f9f4" d="M 787.5,354.5 C 789.089,353.379 790.756,353.546 792.5,355C 802.012,364.205 805.512,375.372 803,388.5C 802.017,394.963 799.85,400.963 796.5,406.5C 782.061,395.285 776.228,380.618 779,362.5C 780.166,359.497 781.833,356.83 784,354.5C 787.274,362.25 789.941,370.25 792,378.5C 792.068,370.123 790.568,362.123 787.5,354.5 Z"/></g>
<g><path style="opacity:1" fill="#32582c" d="M 602.5,290.5 C 634.834,286.909 658.001,299.575 672,328.5C 681.403,358.736 673.569,383.236 648.5,402C 624.905,414.929 601.572,414.595 578.5,401C 558.388,385.019 550.221,364.185 554,338.5C 555.612,331.496 558.112,324.829 561.5,318.5C 578.128,317.689 588.628,309.356 593,293.5C 596.188,292.233 599.355,291.233 602.5,290.5 Z"/></g>
<g><path style="opacity:1" fill="#fbfcfb" d="M 608.5,320.5 C 632.037,320.876 642.871,332.876 641,356.5C 636.881,374.928 625.381,382.761 606.5,380C 593.369,374.423 587.036,364.423 587.5,350C 587.777,335.25 594.777,325.417 608.5,320.5 Z"/></g>
<g><path style="opacity:1" fill="#f7faf4" d="M 239.5,366.5 C 241.833,366.5 244.167,366.5 246.5,366.5C 245.308,388.683 233.975,402.35 212.5,407.5C 211.328,407.081 210.328,406.415 209.5,405.5C 214.569,397.926 220.569,391.092 227.5,385C 225.024,385.747 222.691,387.081 220.5,389C 216.657,393.674 212.657,398.174 208.5,402.5C 206.67,393.156 209.17,385.156 216,378.5C 223.164,373.065 230.997,369.065 239.5,366.5 Z"/></g>
<g><path style="opacity:1" fill="#f7f9f3" d="M 844.5,371.5 C 863.675,373.043 877.342,382.377 885.5,399.5C 874.652,402.168 863.652,403.001 852.5,402C 843.844,400.26 836.677,396.093 831,389.5C 829.795,387.466 829.628,385.466 830.5,383.5C 838.775,388.589 847.775,391.089 857.5,391C 847.577,388.536 838.243,384.703 829.5,379.5C 829.919,378.328 830.585,377.328 831.5,376.5C 835.725,374.209 840.058,372.542 844.5,371.5 Z"/></g>
<g><path style="opacity:1" fill="#f7f9f4" d="M 225.5,408.5 C 226.5,408.5 227.5,408.5 228.5,408.5C 230.523,420.032 228.356,430.698 222,440.5C 218.353,445.806 213.353,449.139 207,450.5C 205.518,448.888 203.685,447.888 201.5,447.5C 199.55,436.184 202.884,426.684 211.5,419C 216.056,415.236 220.723,411.736 225.5,408.5 Z"/></g>
<g><path style="opacity:1" fill="#7ba740" d="M 494.5,414.5 C 522.172,413.269 549.506,415.603 576.5,421.5C 573.761,424.007 571.094,426.007 568.5,427.5C 568.642,429.694 568.309,432.027 567.5,434.5C 567.263,435.791 567.596,436.791 568.5,437.5C 570.292,438.309 572.292,438.809 574.5,439C 575.337,440.011 575.67,441.178 575.5,442.5C 573.435,442.517 571.435,442.85 569.5,443.5C 542.724,438.748 515.724,436.748 488.5,437.5C 488.249,435.83 487.582,434.33 486.5,433C 487.833,431 487.833,429 486.5,427C 488.679,426.558 489.345,425.558 488.5,424C 489.574,423.261 490.241,422.261 490.5,421C 489.711,419.374 488.711,417.874 487.5,416.5C 489.969,415.832 492.302,415.165 494.5,414.5 Z"/></g>
<g><path style="opacity:1" fill="#f5f6f1" d="M 568.5,437.5 C 567.596,436.791 567.263,435.791 567.5,434.5C 569.636,432.188 571.636,429.688 573.5,427C 575.701,426.175 577.534,426.675 579,428.5C 579.936,432.114 580.436,435.78 580.5,439.5C 578.014,438.871 575.681,437.871 573.5,436.5C 571.793,436.728 570.126,437.062 568.5,437.5 Z"/></g>
<g><path style="opacity:1" fill="#7aa643" d="M 411.5,432.5 C 413.481,434.144 415.481,435.81 417.5,437.5C 418.559,440.618 419.892,443.618 421.5,446.5C 422.6,447.558 423.934,448.392 425.5,449C 424.5,449.333 423.5,449.667 422.5,450C 423.737,450.232 424.737,450.732 425.5,451.5C 415.146,454.922 406.646,460.922 400,469.5C 398.263,473.661 397.263,477.995 397,482.5C 396.334,491.828 395.834,501.161 395.5,510.5C 388.978,510.177 382.645,510.51 376.5,511.5C 375.833,511.5 375.167,511.5 374.5,511.5C 373.508,504.352 373.175,497.019 373.5,489.5C 372.878,476.774 375.378,464.774 381,453.5C 389.497,444.161 399.664,437.161 411.5,432.5 Z"/></g>
<g><path style="opacity:1" fill="#7ea846" d="M 576.5,421.5 C 595.536,425.353 613.203,432.52 629.5,443C 634.023,446.023 637.69,449.856 640.5,454.5C 637.804,456.509 635.137,458.509 632.5,460.5C 628.601,462.386 624.934,464.719 621.5,467.5C 615.697,461.762 609.031,457.262 601.5,454C 590.893,449.964 580.226,446.464 569.5,443.5C 571.435,442.85 573.435,442.517 575.5,442.5C 575.67,441.178 575.337,440.011 574.5,439C 572.292,438.809 570.292,438.309 568.5,437.5C 570.126,437.062 571.793,436.728 573.5,436.5C 575.681,437.871 578.014,438.871 580.5,439.5C 580.436,435.78 579.936,432.114 579,428.5C 577.534,426.675 575.701,426.175 573.5,427C 571.636,429.688 569.636,432.188 567.5,434.5C 568.309,432.027 568.642,429.694 568.5,427.5C 571.094,426.007 573.761,424.007 576.5,421.5 Z"/></g>
<g><path style="opacity:1" fill="#95bd62" d="M 574.5,430.5 C 576.048,430.821 576.715,431.821 576.5,433.5C 575.448,433.649 574.448,433.483 573.5,433C 574.252,432.329 574.586,431.496 574.5,430.5 Z"/></g>
<g><path style="opacity:1" fill="#f2f4ea" d="M 595.5,432.5 C 598.94,433.091 602.273,434.091 605.5,435.5C 606.386,436.325 606.719,437.325 606.5,438.5C 605.07,438.579 603.736,438.246 602.5,437.5C 601.061,440.719 599.394,443.719 597.5,446.5C 596.5,446.167 595.833,445.5 595.5,444.5C 597.105,441.686 598.105,438.686 598.5,435.5C 597.5,435.5 596.5,435.5 595.5,435.5C 595.5,434.5 595.5,433.5 595.5,432.5 Z"/></g>
<g><path style="opacity:1" fill="#84ae49" d="M 494.5,414.5 C 492.302,415.165 489.969,415.832 487.5,416.5C 488.711,417.874 489.711,419.374 490.5,421C 490.241,422.261 489.574,423.261 488.5,424C 489.345,425.558 488.679,426.558 486.5,427C 487.833,429 487.833,431 486.5,433C 487.582,434.33 488.249,435.83 488.5,437.5C 466.821,439.17 445.821,443.837 425.5,451.5C 424.737,450.732 423.737,450.232 422.5,450C 423.5,449.667 424.5,449.333 425.5,449C 423.934,448.392 422.6,447.558 421.5,446.5C 424.696,446.101 427.696,445.101 430.5,443.5C 428.515,441.067 426.348,441.067 424,443.5C 422.596,440.456 421.096,437.456 419.5,434.5C 418.081,435.005 417.415,436.005 417.5,437.5C 415.481,435.81 413.481,434.144 411.5,432.5C 437.881,421.263 465.547,415.263 494.5,414.5 Z"/></g>
<g><path style="opacity:1" fill="#f3f5ea" d="M 454.5,423.5 C 457.518,423.335 460.518,423.502 463.5,424C 466.081,426.16 466.081,428.326 463.5,430.5C 464.5,431.833 465.5,433.167 466.5,434.5C 465.833,434.833 465.167,435.167 464.5,435.5C 462.833,434.5 461.167,433.5 459.5,432.5C 458.571,433.689 458.238,435.022 458.5,436.5C 456.876,436.64 455.71,435.973 455,434.5C 453.92,430.766 453.754,427.1 454.5,423.5 Z"/></g>
<g><path style="opacity:1" fill="#f4f6ed" d="M 443.5,426.5 C 444.873,426.343 446.207,426.51 447.5,427C 450.026,430.026 452.36,433.193 454.5,436.5C 451.26,436.976 447.927,436.976 444.5,436.5C 444.778,438.346 444.111,439.68 442.5,440.5C 441.116,435.68 441.45,431.013 443.5,426.5 Z"/></g>
<g><path style="opacity:1" fill="#7cb53a" d="M 445.5,430.5 C 447.332,431.14 447.665,432.14 446.5,433.5C 445.614,432.675 445.281,431.675 445.5,430.5 Z"/></g>
<g><path style="opacity:1" fill="#f5f6ed" d="M 433.5,428.5 C 434.833,428.5 436.167,428.5 437.5,428.5C 437.5,429.5 437.5,430.5 437.5,431.5C 435.158,431.504 433.158,432.337 431.5,434C 433.557,434.305 435.557,434.305 437.5,434C 437.957,434.414 438.291,434.914 438.5,435.5C 436.954,436.684 435.287,437.684 433.5,438.5C 435.741,438.498 438.074,438.832 440.5,439.5C 438.112,441.361 435.446,442.694 432.5,443.5C 430.26,440.12 428.593,436.454 427.5,432.5C 429.565,431.143 431.565,429.81 433.5,428.5 Z"/></g>
<g><path style="opacity:1" fill="#84b34a" d="M 457.5,426.5 C 458.978,426.238 460.311,426.571 461.5,427.5C 459.537,430.194 458.203,429.861 457.5,426.5 Z"/></g>
<g><path style="opacity:1" fill="#f3f5ed" d="M 475.5,420.5 C 476.822,420.33 477.989,420.663 479,421.5C 479.499,425.486 479.666,429.486 479.5,433.5C 476.386,432.909 473.886,431.242 472,428.5C 471.505,430.473 471.338,432.473 471.5,434.5C 470.178,434.67 469.011,434.337 468,433.5C 467.172,429.534 466.672,425.534 466.5,421.5C 470.147,421.622 472.981,423.288 475,426.5C 475.495,424.527 475.662,422.527 475.5,420.5 Z"/></g>
<g><path style="opacity:1" fill="#fcfdfb" d="M 488.5,437.5 C 515.724,436.748 542.724,438.748 569.5,443.5C 580.226,446.464 590.893,449.964 601.5,454C 609.031,457.262 615.697,461.762 621.5,467.5C 624.934,464.719 628.601,462.386 632.5,460.5C 634.294,461.233 635.961,462.233 637.5,463.5C 613.18,477.956 607.68,497.623 621,522.5C 627.98,504.044 638.813,488.211 653.5,475C 654.167,474.333 654.833,474.333 655.5,475C 642.698,490.101 633.698,507.267 628.5,526.5C 636.388,526.352 644.055,525.019 651.5,522.5C 652.263,523.268 653.263,523.768 654.5,524C 653.122,525.713 651.455,527.047 649.5,528C 650.5,528.333 651.5,528.667 652.5,529C 651.906,529.464 651.239,529.631 650.5,529.5C 643.019,531.863 635.352,533.196 627.5,533.5C 627.025,547.255 625.691,560.921 623.5,574.5C 621.662,578.668 619.995,583.002 618.5,587.5C 612.512,601.813 603.512,613.813 591.5,623.5C 588.684,625.217 586.517,624.551 585,621.5C 584.667,621.833 584.333,622.167 584,622.5C 583.751,619.857 584.584,617.523 586.5,615.5C 585.975,614.808 585.308,614.308 584.5,614C 587.695,613.819 590.695,613.319 593.5,612.5C 594.289,612.217 594.956,611.717 595.5,611C 594.377,609.956 593.044,609.29 591.5,609C 583.33,608.589 575.163,608.755 567,609.5C 554.192,609.939 542.026,607.439 530.5,602C 525.384,597.271 522.217,591.438 521,584.5C 518.887,574.253 518.221,563.92 519,553.5C 520.086,549.654 521.919,546.32 524.5,543.5C 526.099,543.232 527.432,543.566 528.5,544.5C 530.956,551.787 535.956,556.62 543.5,559C 559.668,562.668 569.834,556.501 574,540.5C 590.098,535.314 596.765,524.314 594,507.5C 590.941,498.94 585.107,493.273 576.5,490.5C 576.843,472.025 568.01,461.359 550,458.5C 544.992,458.614 540.325,459.947 536,462.5C 524.908,444.882 510.408,441.382 492.5,452C 488.588,456.077 485.255,460.577 482.5,465.5C 466.457,459.235 454.29,463.568 446,478.5C 444.734,482.395 444.234,486.395 444.5,490.5C 429.664,495.487 423.497,505.821 426,521.5C 429.165,531.833 435.998,538.166 446.5,540.5C 452.016,558.924 463.683,564.424 481.5,557C 485.891,554.026 489.225,550.192 491.5,545.5C 492.694,542.982 493.86,542.982 495,545.5C 495.383,544.944 495.883,544.611 496.5,544.5C 500.874,550.408 502.541,557.074 501.5,564.5C 501.61,575.176 499.776,585.509 496,595.5C 494.542,597.96 492.709,600.127 490.5,602C 481.888,605.48 473.221,608.647 464.5,611.5C 464.167,611.833 463.833,612.167 463.5,612.5C 465.246,614.854 467.579,615.854 470.5,615.5C 473.916,614.894 476.582,615.894 478.5,618.5C 477.624,619.251 476.624,619.751 475.5,620C 476.424,620.85 476.424,621.85 475.5,623C 477.201,624.86 478.201,627.027 478.5,629.5C 470.345,623.918 461.678,619.085 452.5,615C 435.364,608.733 418.031,603.066 400.5,598C 393.364,595.267 386.698,591.767 380.5,587.5C 369.011,577.878 364.511,565.545 367,550.5C 373.886,534.205 385.386,529.705 401.5,537C 408.596,543.489 410.429,551.322 407,560.5C 402.874,566.97 397.041,569.137 389.5,567C 383.842,563.373 381.675,558.207 383,551.5C 388.841,544.606 394.175,544.939 399,552.5C 399.45,548.909 397.95,546.409 394.5,545C 379.533,543.98 374.033,550.814 378,565.5C 382.961,575.063 390.794,578.897 401.5,577C 418.136,571.503 424.969,560.003 422,542.5C 415.04,523.727 401.54,515.393 381.5,517.5C 383.631,516.686 385.964,516.186 388.5,516C 385.013,513.088 381.013,511.588 376.5,511.5C 382.645,510.51 388.978,510.177 395.5,510.5C 395.834,501.161 396.334,491.828 397,482.5C 397.263,477.995 398.263,473.661 400,469.5C 406.646,460.922 415.146,454.922 425.5,451.5C 445.821,443.837 466.821,439.17 488.5,437.5 Z"/></g>
<g><path style="opacity:1" fill="#f6f8eb" d="M 421.5,446.5 C 419.892,443.618 418.559,440.618 417.5,437.5C 417.415,436.005 418.081,435.005 419.5,434.5C 421.096,437.456 422.596,440.456 424,443.5C 426.348,441.067 428.515,441.067 430.5,443.5C 427.696,445.101 424.696,446.101 421.5,446.5 Z"/></g>
<g><path style="opacity:1" fill="#f4f6ed" d="M 585.5,429.5 C 589.07,428.893 591.737,430.06 593.5,433C 593.167,433.5 592.833,434 592.5,434.5C 590.253,433.626 587.92,433.292 585.5,433.5C 584.5,438.5 586.5,440.5 591.5,439.5C 591.5,440.5 591.5,441.5 591.5,442.5C 581.077,441.786 579.077,437.453 585.5,429.5 Z"/></g>
<g><path style="opacity:1" fill="#f7f9f4" d="M 848.5,426.5 C 861.071,424.704 870.905,429.037 878,439.5C 881.472,444.917 883.972,450.751 885.5,457C 870.028,459.505 857.195,454.672 847,442.5C 844.563,439.062 843.73,435.395 844.5,431.5C 847.409,434.577 850.742,437.077 854.5,439C 855.332,439.688 855.998,439.521 856.5,438.5C 853.48,435.645 850.313,432.979 847,430.5C 846.7,428.934 847.2,427.601 848.5,426.5 Z"/></g>
<g><path style="opacity:1" fill="#8fb947" d="M 528.5,544.5 C 531.831,541.695 534.831,538.528 537.5,535C 546.5,528 555.5,521 564.5,514C 548.003,511.777 533.337,515.944 520.5,526.5C 517.875,510.226 509.208,498.559 494.5,491.5C 494.167,491.833 493.833,492.167 493.5,492.5C 499.321,503.457 501.487,515.124 500,527.5C 486.94,518.276 472.44,514.443 456.5,516C 469.555,524.224 481.222,534.058 491.5,545.5C 489.225,550.192 485.891,554.026 481.5,557C 463.683,564.424 452.016,558.924 446.5,540.5C 435.998,538.166 429.165,531.833 426,521.5C 423.497,505.821 429.664,495.487 444.5,490.5C 444.234,486.395 444.734,482.395 446,478.5C 454.29,463.568 466.457,459.235 482.5,465.5C 485.255,460.577 488.588,456.077 492.5,452C 510.408,441.382 524.908,444.882 536,462.5C 540.325,459.947 544.992,458.614 550,458.5C 568.01,461.359 576.843,472.025 576.5,490.5C 585.107,493.273 590.941,498.94 594,507.5C 596.765,524.314 590.098,535.314 574,540.5C 569.834,556.501 559.668,562.668 543.5,559C 535.956,556.62 530.956,551.787 528.5,544.5 Z"/></g>
<g><path style="opacity:1" fill="#f6f9f4" d="M 810.5,404.5 C 812.309,412.775 813.142,421.442 813,430.5C 814.582,422.174 816.082,413.84 817.5,405.5C 824.094,411.256 827.427,418.589 827.5,427.5C 825.161,442.509 818.828,455.509 808.5,466.5C 800.782,457.359 796.782,446.692 796.5,434.5C 796.783,422.259 801.45,412.259 810.5,404.5 Z"/></g>
<g><path style="opacity:1" fill="#f6f9f3" d="M 153.5,405.5 C 172.751,416.929 184.918,433.595 190,455.5C 190.949,463.09 189.949,470.423 187,477.5C 186,478.5 185,479.5 184,480.5C 181.31,469.127 176.977,458.46 171,448.5C 170.833,449 170.667,449.5 170.5,450C 174.037,460.647 176.703,471.48 178.5,482.5C 163.793,478.289 154.626,468.622 151,453.5C 147.402,437.252 148.235,421.252 153.5,405.5 Z"/></g>
<g><path style="opacity:1" fill="#90b747" d="M 651.5,522.5 C 644.055,525.019 636.388,526.352 628.5,526.5C 633.698,507.267 642.698,490.101 655.5,475C 654.833,474.333 654.167,474.333 653.5,475C 638.813,488.211 627.98,504.044 621,522.5C 607.68,497.623 613.18,477.956 637.5,463.5C 650.332,456.553 663.999,453.553 678.5,454.5C 676.781,466.448 675.281,478.448 674,490.5C 671.297,504.678 663.797,515.345 651.5,522.5 Z"/></g>
<g><path style="opacity:1" fill="#f7f9f4" d="M 215.5,465.5 C 216.496,465.414 217.329,465.748 218,466.5C 222.699,482.403 219.199,496.236 207.5,508C 204.405,510.415 201.071,511.248 197.5,510.5C 200.244,505.374 202.078,500.041 203,494.5C 200.729,499.159 198.563,503.826 196.5,508.5C 195.675,509.386 194.675,509.719 193.5,509.5C 191.092,499.481 192.592,490.147 198,481.5C 203.43,475.563 209.263,470.23 215.5,465.5 Z"/></g>
<g><path style="opacity:1" fill="#f6f9f4" d="M 131.5,480.5 C 144.719,484.276 156.719,490.443 167.5,499C 179.012,509.353 182.678,521.853 178.5,536.5C 171.966,526.29 164.632,516.623 156.5,507.5C 155.833,506.167 155.167,506.167 154.5,507.5C 162.631,517.423 168.964,528.423 173.5,540.5C 161.688,540.511 152.188,535.844 145,526.5C 136.166,512.506 131.666,497.173 131.5,480.5 Z"/></g>
<g><path style="opacity:1" fill="#f7f9f4" d="M 831.5,466.5 C 832.5,466.5 833.5,466.5 834.5,466.5C 832.995,472.159 831.828,477.825 831,483.5C 833.46,478.618 835.627,473.618 837.5,468.5C 838.799,469.09 839.632,470.09 840,471.5C 843.541,482.797 841.541,493.13 834,502.5C 829.614,507.389 824.78,511.722 819.5,515.5C 812.401,501.404 813.235,487.738 822,474.5C 824.775,471.22 827.942,468.554 831.5,466.5 Z"/></g>
<g><path style="opacity:1" fill="#f6f9f3" d="M 858.5,463.5 C 868.741,463.205 877.241,466.872 884,474.5C 893.422,487.099 898.255,501.265 898.5,517C 883.981,512.985 871.481,505.485 861,494.5C 856.995,489.489 854.328,483.822 853,477.5C 851.88,467.804 853.547,467.137 858,475.5C 862.677,480.715 867.511,485.048 872.5,488.5C 866.427,481.357 861.094,473.69 856.5,465.5C 857.243,464.818 857.909,464.151 858.5,463.5 Z"/></g>
<g><path style="opacity:1" fill="#a4c281" d="M 373.5,489.5 C 373.175,497.019 373.508,504.352 374.5,511.5C 374.44,512.043 374.107,512.376 373.5,512.5C 372.18,504.677 372.18,497.01 373.5,489.5 Z"/></g>
<g><path style="opacity:1" fill="#f6f6f2" d="M 528.5,544.5 C 527.432,543.566 526.099,543.232 524.5,543.5C 532.143,532.69 541.81,524.19 553.5,518C 540.171,519.33 528.504,524.496 518.5,533.5C 517.914,533.291 517.414,532.957 517,532.5C 515.731,519.815 510.564,509.148 501.5,500.5C 501.167,500.667 500.833,500.833 500.5,501C 505.435,511.334 506.768,522.168 504.5,533.5C 503.127,533.657 501.793,533.49 500.5,533C 490.906,525.865 480.24,521.531 468.5,520C 479.854,525.854 489.188,534.021 496.5,544.5C 495.883,544.611 495.383,544.944 495,545.5C 493.86,542.982 492.694,542.982 491.5,545.5C 481.222,534.058 469.555,524.224 456.5,516C 472.44,514.443 486.94,518.276 500,527.5C 501.487,515.124 499.321,503.457 493.5,492.5C 493.833,492.167 494.167,491.833 494.5,491.5C 509.208,498.559 517.875,510.226 520.5,526.5C 533.337,515.944 548.003,511.777 564.5,514C 555.5,521 546.5,528 537.5,535C 534.831,538.528 531.831,541.695 528.5,544.5 Z"/></g>
<g><path style="opacity:1" fill="#53a5a6" d="M 381.5,517.5 C 401.54,515.393 415.04,523.727 422,542.5C 424.969,560.003 418.136,571.503 401.5,577C 390.794,578.897 382.961,575.063 378,565.5C 374.033,550.814 379.533,543.98 394.5,545C 397.95,546.409 399.45,548.909 399,552.5C 394.175,544.939 388.841,544.606 383,551.5C 381.675,558.207 383.842,563.373 389.5,567C 397.041,569.137 402.874,566.97 407,560.5C 410.429,551.322 408.596,543.489 401.5,537C 385.386,529.705 373.886,534.205 367,550.5C 364.511,565.545 369.011,577.878 380.5,587.5C 379.213,588.528 378.046,588.195 377,586.5C 375.347,586.82 374.347,587.82 374,589.5C 373.275,587.842 372.108,587.342 370.5,588C 372.464,589.451 373.797,591.284 374.5,593.5C 362.827,583.189 357.661,570.189 359,554.5C 362.276,539.748 371.109,530.248 385.5,526C 369.127,527.023 358.627,535.523 354,551.5C 353.502,554.817 353.335,558.15 353.5,561.5C 352.678,552.322 351.511,552.322 350,561.5C 347.996,558.525 346.996,555.192 347,551.5C 346.768,552.737 346.268,553.737 345.5,554.5C 349.43,534.237 361.43,521.904 381.5,517.5 Z"/></g>
<g><path style="opacity:1" fill="#f6f9f4" d="M 823.5,525.5 C 825.833,525.5 828.167,525.5 830.5,525.5C 830.649,526.552 830.483,527.552 830,528.5C 826.167,533.5 822.333,538.5 818.5,543.5C 818.667,543.833 818.833,544.167 819,544.5C 823.738,539.352 828.238,534.019 832.5,528.5C 834.63,536.277 833.13,543.277 828,549.5C 820.791,557.546 811.958,562.879 801.5,565.5C 801.067,547.685 808.4,534.352 823.5,525.5 Z"/></g>
<g><path style="opacity:1" fill="#f6f9f4" d="M 130.5,542.5 C 146.374,545.62 160.54,552.287 173,562.5C 179.914,569.959 183.081,578.626 182.5,588.5C 174.339,581.176 166.006,574.009 157.5,567C 156.668,566.312 156.002,566.479 155.5,567.5C 164.173,575.174 172.173,583.507 179.5,592.5C 173.361,596.126 167.027,596.293 160.5,593C 139.884,582.619 129.884,565.785 130.5,542.5 Z"/></g>
<g><path style="opacity:1" fill="#f7f9f3" d="M 854.5,520.5 C 870.023,521.187 880.523,528.854 886,543.5C 890.581,553.98 891.415,564.646 888.5,575.5C 880.33,570.583 872.33,565.416 864.5,560C 853.337,550.537 848.837,538.704 851,524.5C 855.281,531.115 859.947,537.448 865,543.5C 865.167,543.167 865.333,542.833 865.5,542.5C 861.374,535.749 857.374,528.915 853.5,522C 854.056,521.617 854.389,521.117 854.5,520.5 Z"/></g>
<g><path style="opacity:1" fill="#855a35" d="M 650.5,529.5 C 650.631,544.521 650.131,559.521 649,574.5C 648.021,579.894 646.855,585.228 645.5,590.5C 644.778,590.082 644.278,589.416 644,588.5C 642.951,589.517 641.784,589.684 640.5,589C 641.38,587.644 641.714,586.144 641.5,584.5C 642.161,580.483 640.828,579.149 637.5,580.5C 636.778,580.918 636.278,581.584 636,582.5C 634.987,581.504 634.154,580.504 633.5,579.5C 634.552,577.777 634.552,576.11 633.5,574.5C 634.325,573.614 635.325,573.281 636.5,573.5C 638.5,573.5 640.5,573.5 642.5,573.5C 642.5,572.167 642.5,570.833 642.5,569.5C 639.455,569.492 636.455,569.159 633.5,568.5C 633.5,567.167 633.5,565.833 633.5,564.5C 632.178,564.33 631.011,564.663 630,565.5C 629.503,567.81 629.337,570.143 629.5,572.5C 627.872,574.653 626.372,576.986 625,579.5C 624.648,577.753 624.148,576.086 623.5,574.5C 625.691,560.921 627.025,547.255 627.5,533.5C 635.352,533.196 643.019,531.863 650.5,529.5 Z"/></g>
<g><path style="opacity:1" fill="#f7f9f4" d="M 213.5,519.5 C 214.496,519.414 215.329,519.748 216,520.5C 223.186,538.224 220.019,553.724 206.5,567C 204.55,568.496 202.55,568.663 200.5,567.5C 202.158,562.538 203.325,557.538 204,552.5C 202.368,557.723 200.368,562.723 198,567.5C 193.404,560.742 192.404,553.409 195,545.5C 195.899,541.462 197.566,537.795 200,534.5C 204.337,529.331 208.837,524.331 213.5,519.5 Z"/></g>
<g><path style="opacity:1" fill="#8c5f38" d="M 598.5,541.5 C 599.043,541.56 599.376,541.893 599.5,542.5C 595.838,549.486 593.172,556.819 591.5,564.5C 595.95,564.421 600.283,565.088 604.5,566.5C 596.188,576.647 587.688,586.647 579,596.5C 581.451,588.676 584.617,581.009 588.5,573.5C 583.833,572.5 579.167,571.5 574.5,570.5C 582.747,560.987 590.747,551.32 598.5,541.5 Z"/></g>
<g><path style="opacity:1" fill="#51a5a5" d="M 441.5,554.5 C 447.956,561.498 453.123,569.498 457,578.5C 459.384,591.106 454.384,598.439 442,600.5C 428.502,597.761 424.169,589.761 429,576.5C 432.937,568.949 437.104,561.616 441.5,554.5 Z"/></g>
<g><path style="opacity:1" fill="#efebe8" d="M 636.5,573.5 C 635.432,572.566 634.099,572.232 632.5,572.5C 632.5,573.5 632.5,574.5 632.5,575.5C 631.5,575.5 630.5,575.5 629.5,575.5C 629.5,574.5 629.5,573.5 629.5,572.5C 629.337,570.143 629.503,567.81 630,565.5C 631.011,564.663 632.178,564.33 633.5,564.5C 633.5,565.833 633.5,567.167 633.5,568.5C 636.455,569.159 639.455,569.492 642.5,569.5C 642.5,570.833 642.5,572.167 642.5,573.5C 640.5,573.5 638.5,573.5 636.5,573.5 Z"/></g>
<g><path style="opacity:1" fill="#f1f8f7" d="M 374.5,593.5 C 376.094,594.983 377.76,596.483 379.5,598C 363.882,591.155 355.215,578.989 353.5,561.5C 353.335,558.15 353.502,554.817 354,551.5C 358.627,535.523 369.127,527.023 385.5,526C 371.109,530.248 362.276,539.748 359,554.5C 357.661,570.189 362.827,583.189 374.5,593.5 Z"/></g>
<g><path style="opacity:1" fill="#f7f9f4" d="M 217.5,571.5 C 221.44,573.278 224.273,576.278 226,580.5C 232.765,593.699 233.098,607.032 227,620.5C 225.488,623.857 222.988,625.857 219.5,626.5C 218.743,599.044 217.576,599.044 216,626.5C 208.743,620.647 205.243,612.98 205.5,603.5C 206.152,591.54 210.152,580.873 217.5,571.5 Z"/></g>
<g><path style="opacity:1" fill="#f6f8f3" d="M 844.5,555.5 C 847.226,555.264 849.559,556.097 851.5,558C 867.374,571.955 873.54,589.455 870,610.5C 868.983,621.536 865.983,631.869 861,641.5C 844.844,629.197 834.178,613.197 829,593.5C 827.384,582.727 828.718,572.394 833,562.5C 834.041,560.415 835.541,558.748 837.5,557.5C 839.788,571.324 843.621,584.657 849,597.5C 847.505,583.538 846.005,569.538 844.5,555.5 Z"/></g>
<g><path style="opacity:1" fill="#f5f3ef" d="M 637.5,580.5 C 640.828,579.149 642.161,580.483 641.5,584.5C 637.786,590.245 633.286,590.912 628,586.5C 626.582,582.163 627.748,578.829 631.5,576.5C 631.833,577 632.167,577.5 632.5,578C 629.437,581.567 629.937,584.401 634,586.5C 636.909,585.571 638.075,583.571 637.5,580.5 Z"/></g>
<g><path style="opacity:1" fill="#4ea3a2" d="M 353.5,561.5 C 355.215,578.989 363.882,591.155 379.5,598C 377.76,596.483 376.094,594.983 374.5,593.5C 373.797,591.284 372.464,589.451 370.5,588C 372.108,587.342 373.275,587.842 374,589.5C 374.347,587.82 375.347,586.82 377,586.5C 378.046,588.195 379.213,588.528 380.5,587.5C 386.698,591.767 393.364,595.267 400.5,598C 418.031,603.066 435.364,608.733 452.5,615C 461.678,619.085 470.345,623.918 478.5,629.5C 493.153,641.614 503.487,656.78 509.5,675C 509.164,676.03 508.497,676.53 507.5,676.5C 501.657,676.722 495.99,675.889 490.5,674C 476.139,647.132 454.139,629.799 424.5,622C 409.658,618.623 394.991,614.623 380.5,610C 356.045,599.594 344.378,581.094 345.5,554.5C 346.268,553.737 346.768,552.737 347,551.5C 346.996,555.192 347.996,558.525 350,561.5C 351.511,552.322 352.678,552.322 353.5,561.5 Z"/></g>
<g><path style="opacity:1" fill="#91643e" d="M 629.5,572.5 C 629.5,573.5 629.5,574.5 629.5,575.5C 630.5,575.5 631.5,575.5 632.5,575.5C 632.5,574.5 632.5,573.5 632.5,572.5C 634.099,572.232 635.432,572.566 636.5,573.5C 635.325,573.281 634.325,573.614 633.5,574.5C 634.552,576.11 634.552,577.777 633.5,579.5C 634.154,580.504 634.987,581.504 636,582.5C 636.278,581.584 636.778,580.918 637.5,580.5C 638.075,583.571 636.909,585.571 634,586.5C 629.937,584.401 629.437,581.567 632.5,578C 632.167,577.5 631.833,577 631.5,576.5C 627.748,578.829 626.582,582.163 628,586.5C 633.286,590.912 637.786,590.245 641.5,584.5C 641.714,586.144 641.38,587.644 640.5,589C 641.784,589.684 642.951,589.517 644,588.5C 644.278,589.416 644.778,590.082 645.5,590.5C 644.607,595.517 642.94,600.183 640.5,604.5C 638.097,604.607 636.264,603.607 635,601.5C 634.722,602.416 634.222,603.082 633.5,603.5C 632.986,601.488 632.82,599.488 633,597.5C 634.049,595.893 635.549,595.227 637.5,595.5C 637.5,594.167 637.5,592.833 637.5,591.5C 633.167,591.5 628.833,591.5 624.5,591.5C 624.611,590.883 624.944,590.383 625.5,590C 622.97,589.621 620.637,588.787 618.5,587.5C 619.995,583.002 621.662,578.668 623.5,574.5C 624.148,576.086 624.648,577.753 625,579.5C 626.372,576.986 627.872,574.653 629.5,572.5 Z"/></g>
<g><path style="opacity:1" fill="#eff9f8" d="M 433.5,577.5 C 433.478,583.772 436.311,588.438 442,591.5C 442.684,592.784 442.517,593.951 441.5,595C 436.616,596.141 433.45,594.308 432,589.5C 431.191,585.305 431.691,581.305 433.5,577.5 Z"/></g>
<g><path style="opacity:1" fill="#f6f9f4" d="M 812.5,582.5 C 813.5,582.5 814.5,582.5 815.5,582.5C 813.646,587.698 811.313,592.698 808.5,597.5C 808.846,598.696 809.346,598.696 810,597.5C 812.333,593.833 814.667,590.167 817,586.5C 817.667,585.167 818.333,585.167 819,586.5C 820.568,600.802 815.401,611.969 803.5,620C 798.654,623.173 793.488,625.673 788,627.5C 786.104,611.174 791.271,597.674 803.5,587C 806.437,585.199 809.437,583.699 812.5,582.5 Z"/></g>
<g><path style="opacity:1" fill="#875b35" d="M 524.5,543.5 C 521.919,546.32 520.086,549.654 519,553.5C 518.221,563.92 518.887,574.253 521,584.5C 522.217,591.438 525.384,597.271 530.5,602C 542.026,607.439 554.192,609.939 567,609.5C 575.163,608.755 583.33,608.589 591.5,609C 593.044,609.29 594.377,609.956 595.5,611C 594.956,611.717 594.289,612.217 593.5,612.5C 588.039,612.246 582.705,612.912 577.5,614.5C 577.167,614.833 576.833,615.167 576.5,615.5C 578.833,617.167 580.833,619.167 582.5,621.5C 582.167,622.5 581.5,623.167 580.5,623.5C 573.974,618.569 566.641,615.902 558.5,615.5C 556.5,615.833 554.5,616.167 552.5,616.5C 553.706,619.079 555.039,621.579 556.5,624C 560.46,625.091 564.46,626.091 568.5,627C 570.002,627.583 571.335,628.416 572.5,629.5C 572,630.881 571,631.547 569.5,631.5C 566.336,629.806 563.002,629.306 559.5,630C 558.428,632.676 559.095,635.009 561.5,637C 559.422,639.134 557.588,638.968 556,636.5C 553.016,629.195 548.85,622.695 543.5,617C 539.622,615.53 535.622,614.697 531.5,614.5C 533.362,620.248 535.529,625.915 538,631.5C 542.537,633.77 546.537,636.77 550,640.5C 550.783,642.319 550.283,643.652 548.5,644.5C 545.396,641.534 541.896,639.201 538,637.5C 536.062,641.35 536.562,645.017 539.5,648.5C 538.965,650.101 537.965,650.601 536.5,650C 533.274,644.297 531.774,638.131 532,631.5C 527.414,624.08 521.914,617.414 515.5,611.5C 513.043,615.996 512.877,620.663 515,625.5C 518.333,629.5 521.667,633.5 525,637.5C 526.656,640.753 526.823,644.087 525.5,647.5C 523.837,642.33 520.837,638.164 516.5,635C 513.355,634.876 512.022,636.543 512.5,640C 514.278,645.39 515.611,650.89 516.5,656.5C 516.707,659.832 515.874,662.832 514,665.5C 514.87,657.799 512.703,651.132 507.5,645.5C 506.186,646.313 505.019,647.313 504,648.5C 503.056,647.737 502.556,646.737 502.5,645.5C 504.842,642.149 506.676,638.482 508,634.5C 508.966,630.882 508.466,627.549 506.5,624.5C 501.226,626.634 496.893,629.967 493.5,634.5C 492.585,633.672 491.919,632.672 491.5,631.5C 494.776,626.721 498.609,622.388 503,618.5C 505.8,613.659 504.466,610.993 499,610.5C 496.268,610.615 493.768,611.448 491.5,613C 487.897,616.38 484.897,620.213 482.5,624.5C 481.167,623.833 480.167,622.833 479.5,621.5C 480.601,619.358 481.601,617.192 482.5,615C 478.311,614.188 474.311,614.355 470.5,615.5C 467.579,615.854 465.246,614.854 463.5,612.5C 463.833,612.167 464.167,611.833 464.5,611.5C 473.221,608.647 481.888,605.48 490.5,602C 492.709,600.127 494.542,597.96 496,595.5C 499.776,585.509 501.61,575.176 501.5,564.5C 502.541,557.074 500.874,550.408 496.5,544.5C 489.188,534.021 479.854,525.854 468.5,520C 480.24,521.531 490.906,525.865 500.5,533C 501.793,533.49 503.127,533.657 504.5,533.5C 506.768,522.168 505.435,511.334 500.5,501C 500.833,500.833 501.167,500.667 501.5,500.5C 510.564,509.148 515.731,519.815 517,532.5C 517.414,532.957 517.914,533.291 518.5,533.5C 528.504,524.496 540.171,519.33 553.5,518C 541.81,524.19 532.143,532.69 524.5,543.5 Z"/></g>
<g><path style="opacity:1" fill="#f0ebe6" d="M 624.5,591.5 C 628.833,591.5 633.167,591.5 637.5,591.5C 637.5,592.833 637.5,594.167 637.5,595.5C 635.549,595.227 634.049,595.893 633,597.5C 632.82,599.488 632.986,601.488 633.5,603.5C 632.749,604.573 631.749,604.74 630.5,604C 628,601.5 625.5,599 623,596.5C 622.387,594.505 622.887,592.838 624.5,591.5 Z"/></g>
<g><path style="opacity:1" fill="#8d5f2a" d="M 627.5,596.5 C 628.251,595.427 629.251,595.26 630.5,596C 629.648,597.728 628.648,597.895 627.5,596.5 Z"/></g>
<g><path style="opacity:1" fill="#f7f9f4" d="M 164.5,609.5 C 179.191,607.283 191.358,611.616 201,622.5C 201.591,623.483 201.257,624.15 200,624.5C 192.629,622.391 185.129,621.558 177.5,622C 185.326,623.386 192.992,625.386 200.5,628C 201.517,629.049 201.684,630.216 201,631.5C 192.877,639.237 183.377,641.404 172.5,638C 161.177,634.502 152.177,627.835 145.5,618C 147.156,616.171 149.156,614.837 151.5,614C 155.893,612.329 160.226,610.829 164.5,609.5 Z"/></g>
<g><path style="opacity:1" fill="#f8f7f6" d="M 593.5,612.5 C 590.695,613.319 587.695,613.819 584.5,614C 585.308,614.308 585.975,614.808 586.5,615.5C 584.584,617.523 583.751,619.857 584,622.5C 584.333,622.167 584.667,621.833 585,621.5C 586.517,624.551 588.684,625.217 591.5,623.5C 584.586,630.237 576.92,636.07 568.5,641C 551.852,648.987 535.852,657.987 520.5,668C 517.36,670.228 514.694,672.895 512.5,676C 514.81,676.497 517.143,676.663 519.5,676.5C 515.5,677.833 511.5,677.833 507.5,676.5C 508.497,676.53 509.164,676.03 509.5,675C 503.487,656.78 493.153,641.614 478.5,629.5C 478.201,627.027 477.201,624.86 475.5,623C 476.424,621.85 476.424,620.85 475.5,620C 476.624,619.751 477.624,619.251 478.5,618.5C 476.582,615.894 473.916,614.894 470.5,615.5C 474.311,614.355 478.311,614.188 482.5,615C 481.601,617.192 480.601,619.358 479.5,621.5C 480.167,622.833 481.167,623.833 482.5,624.5C 484.897,620.213 487.897,616.38 491.5,613C 493.768,611.448 496.268,610.615 499,610.5C 504.466,610.993 505.8,613.659 503,618.5C 498.609,622.388 494.776,626.721 491.5,631.5C 491.919,632.672 492.585,633.672 493.5,634.5C 496.893,629.967 501.226,626.634 506.5,624.5C 508.466,627.549 508.966,630.882 508,634.5C 506.676,638.482 504.842,642.149 502.5,645.5C 502.556,646.737 503.056,647.737 504,648.5C 505.019,647.313 506.186,646.313 507.5,645.5C 512.703,651.132 514.87,657.799 514,665.5C 515.874,662.832 516.707,659.832 516.5,656.5C 515.611,650.89 514.278,645.39 512.5,640C 512.022,636.543 513.355,634.876 516.5,635C 520.837,638.164 523.837,642.33 525.5,647.5C 526.823,644.087 526.656,640.753 525,637.5C 521.667,633.5 518.333,629.5 515,625.5C 512.877,620.663 513.043,615.996 515.5,611.5C 521.914,617.414 527.414,624.08 532,631.5C 531.774,638.131 533.274,644.297 536.5,650C 537.965,650.601 538.965,650.101 539.5,648.5C 536.562,645.017 536.062,641.35 538,637.5C 541.896,639.201 545.396,641.534 548.5,644.5C 550.283,643.652 550.783,642.319 550,640.5C 546.537,636.77 542.537,633.77 538,631.5C 535.529,625.915 533.362,620.248 531.5,614.5C 535.622,614.697 539.622,615.53 543.5,617C 548.85,622.695 553.016,629.195 556,636.5C 557.588,638.968 559.422,639.134 561.5,637C 559.095,635.009 558.428,632.676 559.5,630C 563.002,629.306 566.336,629.806 569.5,631.5C 571,631.547 572,630.881 572.5,629.5C 571.335,628.416 570.002,627.583 568.5,627C 564.46,626.091 560.46,625.091 556.5,624C 555.039,621.579 553.706,619.079 552.5,616.5C 554.5,616.167 556.5,615.833 558.5,615.5C 566.641,615.902 573.974,618.569 580.5,623.5C 581.5,623.167 582.167,622.5 582.5,621.5C 580.833,619.167 578.833,617.167 576.5,615.5C 576.833,615.167 577.167,614.833 577.5,614.5C 582.705,612.912 588.039,612.246 593.5,612.5 Z"/></g>
<g><path style="opacity:1" fill="#f7f9f4" d="M 234.5,619.5 C 252.303,632.077 257.803,648.743 251,669.5C 249.989,670.337 248.822,670.67 247.5,670.5C 246.798,667.422 245.798,664.422 244.5,661.5C 243.858,664.957 244.524,668.29 246.5,671.5C 245.635,672.583 244.635,672.749 243.5,672C 237.064,668.229 232.897,662.729 231,655.5C 228.275,643.074 229.442,631.074 234.5,619.5 Z"/></g>
<g><path style="opacity:1" fill="#875a33" d="M 618.5,587.5 C 620.637,588.787 622.97,589.621 625.5,590C 624.944,590.383 624.611,590.883 624.5,591.5C 622.887,592.838 622.387,594.505 623,596.5C 625.5,599 628,601.5 630.5,604C 631.749,604.74 632.749,604.573 633.5,603.5C 634.222,603.082 634.722,602.416 635,601.5C 636.264,603.607 638.097,604.607 640.5,604.5C 632.445,625.728 618.445,641.895 598.5,653C 573.525,665.829 547.192,673.662 519.5,676.5C 517.143,676.663 514.81,676.497 512.5,676C 514.694,672.895 517.36,670.228 520.5,668C 535.852,657.987 551.852,648.987 568.5,641C 576.92,636.07 584.586,630.237 591.5,623.5C 603.512,613.813 612.512,601.813 618.5,587.5 Z"/></g>
<g><path style="opacity:1" fill="#efebe5" d="M 602.5,621.5 C 605.724,624.218 608.891,627.218 612,630.5C 612.5,632.667 611.667,633.5 609.5,633C 607,630.5 604.5,628 602,625.5C 601.421,624.072 601.588,622.738 602.5,621.5 Z"/></g>
<g><path style="opacity:1" fill="#f4f0ed" d="M 613.5,610.5 C 617.677,612.426 621.344,615.093 624.5,618.5C 624.167,619.5 623.5,620.167 622.5,620.5C 617.398,616.056 616.064,617.056 618.5,623.5C 616.488,622.986 614.488,622.82 612.5,623C 614.327,623.899 615.66,625.233 616.5,627C 616.387,628.28 615.72,629.113 614.5,629.5C 610.31,626.659 607.31,622.993 605.5,618.5C 608.627,618.876 611.627,618.876 614.5,618.5C 612.827,615.882 612.494,613.215 613.5,610.5 Z"/></g>
<g><path style="opacity:1" fill="#f1ede9" d="M 619.5,601.5 C 627.153,600.811 629.153,603.811 625.5,610.5C 626.853,611.524 627.52,612.857 627.5,614.5C 623.175,614.019 619.342,612.352 616,609.5C 615.777,606.275 616.943,603.609 619.5,601.5 Z"/></g>
<g><path style="opacity:1" fill="#94683e" d="M 621.5,604.5 C 623.176,605.183 623.843,606.517 623.5,608.5C 619.437,608.384 618.77,607.051 621.5,604.5 Z"/></g>
<g><path style="opacity:1" fill="#f7f9f4" d="M 796.5,635.5 C 799.247,635.187 801.914,635.52 804.5,636.5C 800.054,642.449 795.054,647.949 789.5,653C 790.167,653.667 790.833,653.667 791.5,653C 797.298,649.368 802.298,644.868 806.5,639.5C 806.315,653.658 799.648,663.825 786.5,670C 778.625,672.681 770.625,674.848 762.5,676.5C 762.632,661.746 768.965,650.246 781.5,642C 786.367,639.226 791.367,637.059 796.5,635.5 Z"/></g>
<g><path style="opacity:1" fill="#4da3a1" d="M 388.5,619.5 C 409.177,623.502 429.177,629.669 448.5,638C 463.308,646.308 474.975,657.808 483.5,672.5C 453.115,669.089 426.115,657.589 402.5,638C 396.824,632.505 392.158,626.338 388.5,619.5 Z"/></g>
<g><path style="opacity:1" fill="#f7f9f4" d="M 822.5,648.5 C 833.668,649.828 841.168,655.828 845,666.5C 848.204,675.177 848.204,683.844 845,692.5C 844.588,694.997 843.422,696.997 841.5,698.5C 832.049,691.885 824.549,683.552 819,673.5C 817.845,669.573 817.012,665.573 816.5,661.5C 816.738,658.201 817.738,655.201 819.5,652.5C 821.695,657.876 824.195,663.209 827,668.5C 827.889,669.888 828.389,669.722 828.5,668C 825.396,661.854 823.396,655.354 822.5,648.5 Z"/></g>
<g><path style="opacity:1" fill="#f6f8f3" d="M 180.5,661.5 C 204.66,661.157 225.16,669.49 242,686.5C 248.694,694.751 251.861,704.084 251.5,714.5C 239.522,704.046 226.855,694.88 213.5,687C 224.709,697.712 236.042,708.212 247.5,718.5C 248.386,719.325 248.719,720.325 248.5,721.5C 233.428,724.566 220.095,721.066 208.5,711C 194.39,697.288 185.056,680.788 180.5,661.5 Z"/></g>
<g><path style="opacity:1" fill="#f6f9f4" d="M 270.5,685.5 C 278.119,688.288 283.286,693.621 286,701.5C 289.128,711.796 289.295,722.13 286.5,732.5C 284.723,732.786 283.056,733.453 281.5,734.5C 274.769,731.598 270.269,726.598 268,719.5C 266.456,712.916 266.123,706.249 267,699.5C 268.078,694.775 269.244,690.109 270.5,685.5 Z"/></g>
<g><path style="opacity:1" fill="#4ea4a2" d="M 465.5,681.5 C 469.846,681.334 474.179,681.501 478.5,682C 480.624,683.122 482.457,684.622 484,686.5C 491.473,703.251 499.14,719.918 507,736.5C 509.19,744.796 506.023,749.129 497.5,749.5C 491.34,748.171 487.673,744.338 486.5,738C 477.173,737.5 467.839,737.334 458.5,737.5C 457.168,748.104 451.502,751.604 441.5,748C 439.129,746.257 437.795,743.923 437.5,741C 445.247,722.004 453.414,703.171 462,684.5C 463.518,683.837 464.685,682.837 465.5,681.5 Z"/></g>
<g><path style="opacity:1" fill="#4fa4a2" d="M 328.5,680.5 C 338.501,679.834 347.834,682 356.5,687C 363.526,693.921 362.526,699.588 353.5,704C 351.833,704.667 350.167,704.667 348.5,704C 339.787,696.507 331.287,696.673 323,704.5C 317.367,714.923 319.2,723.756 328.5,731C 332.039,732.504 335.705,732.837 339.5,732C 343.655,730.421 347.655,728.588 351.5,726.5C 362.465,729.899 364.132,735.732 356.5,744C 345.707,749.602 334.374,750.935 322.5,748C 306.072,739.984 298.906,726.817 301,708.5C 303.017,698.161 308.517,690.328 317.5,685C 321.307,683.572 324.974,682.072 328.5,680.5 Z"/></g>
<g><path style="opacity:1" fill="#f6f9f4" d="M 768.5,692.5 C 773.179,692.334 777.845,692.501 782.5,693C 784.044,693.29 785.377,693.956 786.5,695C 779.833,699.667 773.167,704.333 766.5,709C 773.859,706.736 780.692,703.236 787,698.5C 785.458,710.398 778.958,718.565 767.5,723C 757.75,726.135 747.75,727.635 737.5,727.5C 741.627,710.191 751.96,698.524 768.5,692.5 Z"/></g>
<g><path style="opacity:1" fill="#4da4a2" d="M 373.5,681.5 C 378.715,680.702 383.215,682.036 387,685.5C 387.5,692.492 387.666,699.492 387.5,706.5C 395.5,706.5 403.5,706.5 411.5,706.5C 411.334,699.492 411.5,692.492 412,685.5C 416.515,681.204 421.681,680.37 427.5,683C 428.701,683.903 429.535,685.069 430,686.5C 430.667,705.833 430.667,725.167 430,744.5C 423.953,751.156 417.953,751.156 412,744.5C 411.5,737.508 411.334,730.508 411.5,723.5C 403.5,723.5 395.5,723.5 387.5,723.5C 387.932,731.279 387.432,738.946 386,746.5C 382.276,749.24 378.109,750.074 373.5,749C 371.274,747.773 369.774,745.939 369,743.5C 368.333,724.167 368.333,704.833 369,685.5C 370.397,683.93 371.897,682.596 373.5,681.5 Z"/></g>
<g><path style="opacity:1" fill="#f8fbfa" d="M 471.5,703.5 C 472.75,703.577 473.583,704.244 474,705.5C 475.704,710.403 477.537,715.237 479.5,720C 474.798,720.828 470.131,720.662 465.5,719.5C 468.069,714.365 470.069,709.031 471.5,703.5 Z"/></g>
<g><path style="opacity:1" fill="#f6f9f4" d="M 801.5,708.5 C 806.023,708.345 809.189,710.345 811,714.5C 816.197,725.518 816.864,736.852 813,748.5C 810.723,753.262 807.89,757.595 804.5,761.5C 793.13,748.888 788.963,734.221 792,717.5C 793.25,714.084 795.417,711.417 798.5,709.5C 798.436,715.59 798.936,721.923 800,728.5C 800.374,727.584 800.874,726.75 801.5,726C 801.204,720.592 801.204,714.758 801.5,708.5 Z"/></g>
<g><path style="opacity:1" fill="#4fa4a2" d="M 721.5,725.5 C 722.001,738.835 715.667,746.668 702.5,749C 697.177,749.499 691.844,749.666 686.5,749.5C 679.616,749.039 673.45,746.706 668,742.5C 664.519,735.111 666.519,730.111 674,727.5C 678.361,728.931 682.528,730.765 686.5,733C 690.833,733.667 695.167,733.667 699.5,733C 703.439,729.482 702.772,726.816 697.5,725C 689.794,723.794 682.461,721.46 675.5,718C 665.991,710.452 664.158,701.285 670,690.5C 676.615,683.445 684.781,680.112 694.5,680.5C 701.447,680.789 708.114,682.289 714.5,685C 720.645,689.694 720.979,694.694 715.5,700C 710.215,702.066 705.215,701.399 700.5,698C 696.167,697.333 691.833,697.333 687.5,698C 684.353,702.048 685.353,704.715 690.5,706C 698.42,707.562 706.087,709.896 713.5,713C 718.038,716.025 720.704,720.191 721.5,725.5 Z"/></g>
<g><path style="opacity:1" fill="#4da3a1" d="M 521.5,681.5 C 526.734,680.835 531.568,681.835 536,684.5C 541.396,695.625 547.063,706.625 553,717.5C 558.922,706.657 564.589,695.657 570,684.5C 574.789,681.08 579.956,680.58 585.5,683C 588.936,686.757 590.436,691.257 590,696.5C 590.791,710.534 591.958,724.534 593.5,738.5C 592.805,747.821 587.805,751.321 578.5,749C 575.906,747.661 574.406,745.494 574,742.5C 573.847,733.45 573.18,724.45 572,715.5C 568.016,723.469 564.016,731.469 560,739.5C 555.924,743.034 551.591,743.367 547,740.5C 542.937,732.041 538.603,723.707 534,715.5C 533.116,725.891 532.116,736.225 531,746.5C 524.614,751.076 518.947,750.41 514,744.5C 514.145,725.138 515.145,705.805 517,686.5C 518.707,684.963 520.207,683.296 521.5,681.5 Z"/></g>
<g><path style="opacity:1" fill="#4ea3a1" d="M 610.5,681.5 C 621.555,681.121 632.555,681.621 643.5,683C 661.482,690.942 665.982,703.775 657,721.5C 653.01,726.579 647.843,729.745 641.5,731C 635.175,731.5 628.842,731.666 622.5,731.5C 622.666,735.846 622.499,740.179 622,744.5C 618.65,749.083 614.15,750.583 608.5,749C 606.43,748.052 604.93,746.552 604,744.5C 603.333,725.5 603.333,706.5 604,687.5C 605.494,684.686 607.66,682.686 610.5,681.5 Z"/></g>
<g><path style="opacity:1" fill="#fafcfb" d="M 622.5,698.5 C 627.511,698.334 632.511,698.501 637.5,699C 642.609,702.366 643.776,706.866 641,712.5C 640.097,713.701 638.931,714.535 637.5,715C 632.511,715.499 627.511,715.666 622.5,715.5C 622.5,709.833 622.5,704.167 622.5,698.5 Z"/></g>
<g><path style="opacity:1" fill="#f6f8f4" d="M 220.5,737.5 C 231.428,736.245 241.762,738.079 251.5,743C 256.19,746.282 258.856,750.449 259.5,755.5C 253.533,752.275 247.199,750.775 240.5,751C 246.511,753.004 252.511,755.004 258.5,757C 259.517,758.049 259.684,759.216 259,760.5C 250.565,767.455 241.065,769.289 230.5,766C 217.997,762.157 207.664,755.157 199.5,745C 206.261,741.581 213.261,739.081 220.5,737.5 Z"/></g>
<g><path style="opacity:1" fill="#f6f9f4" d="M 721.5,725.5 C 722.473,727.948 722.806,730.615 722.5,733.5C 728.565,733.013 733.899,734.68 738.5,738.5C 732.061,741.481 725.394,743.981 718.5,746C 725.614,745.41 732.447,743.576 739,740.5C 739.257,743.017 738.59,745.35 737,747.5C 723.785,759.058 708.951,761.558 692.5,755C 691.62,753.644 691.286,752.144 691.5,750.5C 689.585,750.784 687.919,750.451 686.5,749.5C 691.844,749.666 697.177,749.499 702.5,749C 715.667,746.668 722.001,738.835 721.5,725.5 Z"/></g>
<g><path style="opacity:1" fill="#f6f8f4" d="M 771.5,743.5 C 772.124,743.917 772.457,744.584 772.5,745.5C 770.652,754.287 770.152,762.953 771,771.5C 772.914,762.532 774.747,753.532 776.5,744.5C 782.883,746.862 786.716,751.528 788,758.5C 789.815,767.328 789.148,775.995 786,784.5C 783.174,790.822 779.841,796.822 776,802.5C 774.478,805.224 772.311,807.224 769.5,808.5C 759.926,792.22 757.093,774.887 761,756.5C 763.257,751.085 766.757,746.751 771.5,743.5 Z"/></g>
<g><path style="opacity:1" fill="#f7f9f4" d="M 307.5,742.5 C 309.371,742.859 310.871,743.859 312,745.5C 312.914,744.346 313.747,744.513 314.5,746C 314.167,746.333 313.833,746.667 313.5,747C 324.374,752.884 331.874,761.717 336,773.5C 336.667,778.833 336.667,784.167 336,789.5C 335.586,789.957 335.086,790.291 334.5,790.5C 329.14,783.641 323.974,776.641 319,769.5C 318.282,768.549 317.449,768.383 316.5,769C 321.34,777.016 326.674,784.682 332.5,792C 321.835,791.069 313.668,785.902 308,776.5C 303.054,766.549 300.221,756.049 299.5,745C 302.996,744.305 306.33,744.805 309.5,746.5C 309.833,746.333 310.167,746.167 310.5,746C 308.937,745.241 307.937,744.074 307.5,742.5 Z"/></g>
<g><path style="opacity:1" fill="#f6f9f4" d="M 345.5,763.5 C 363.256,764.76 375.089,773.76 381,790.5C 381.789,794.091 381.622,797.591 380.5,801C 377.168,798.686 374.001,795.853 371,792.5C 369.207,789.705 367.04,787.205 364.5,785C 365.888,784.111 365.722,783.611 364,783.5C 362.743,783.85 362.409,784.517 363,785.5C 367.833,791.167 372.667,796.833 377.5,802.5C 375.926,803.631 374.259,803.798 372.5,803C 355.443,795.398 346.443,782.232 345.5,763.5 Z"/></g>
<g><path style="opacity:1" fill="#f7f8f4" d="M 263.5,770.5 C 275.237,768.601 285.237,771.768 293.5,780C 271.061,780.399 271.061,781.565 293.5,783.5C 293.378,787.147 291.712,789.981 288.5,792C 268.344,801.136 250.344,797.802 234.5,782C 244.051,777.546 253.717,773.713 263.5,770.5 Z"/></g>
<g><path style="opacity:1" fill="#f7f9f4" d="M 664.5,767.5 C 669.844,767.334 675.177,767.501 680.5,768C 683.458,768.229 685.958,769.396 688,771.5C 688.089,773.113 687.255,774.28 685.5,775C 677.945,778.277 670.278,781.277 662.5,784C 671.924,783.226 680.924,780.726 689.5,776.5C 687.416,785.44 681.749,791.607 672.5,795C 663.642,797.379 654.642,798.045 645.5,797C 640.52,796.59 635.853,795.257 631.5,793C 635.421,787.074 640.088,781.741 645.5,777C 651.647,773.26 657.98,770.093 664.5,767.5 Z"/></g>
<g><path style="opacity:1" fill="#f6f8f4" d="M 724.5,770.5 C 726.288,770.215 727.955,770.548 729.5,771.5C 722.224,782.888 715.891,794.721 710.5,807C 710.667,807.5 710.833,808 711,808.5C 719.361,796.972 727.528,785.305 735.5,773.5C 736.971,774.381 737.804,775.714 738,777.5C 741.504,792.315 738.504,805.648 729,817.5C 717.803,831.204 703.97,841.204 687.5,847.5C 686.308,826.636 690.475,806.97 700,788.5C 706.379,779.938 714.546,773.938 724.5,770.5 Z"/></g>
<g><path style="opacity:1" fill="#f6f9f4" d="M 387.5,784.5 C 407.228,781.96 423.728,787.96 437,802.5C 439.904,806.582 441.071,810.915 440.5,815.5C 430.859,812.264 422.026,807.597 414,801.5C 413.333,802.167 413.333,802.833 414,803.5C 421.963,809.233 430.463,814.066 439.5,818C 434.977,821.173 429.977,822.173 424.5,821C 406.03,816.035 393.363,804.535 386.5,786.5C 386.863,785.817 387.196,785.15 387.5,784.5 Z"/></g>
<g><path style="opacity:1" fill="#f6f9f4" d="M 602.5,794.5 C 614.453,792.777 624.953,795.777 634,803.5C 635.366,805.37 636.533,807.37 637.5,809.5C 628.509,810.275 619.509,810.442 610.5,810C 618.878,811.47 627.211,812.97 635.5,814.5C 629.596,819.914 622.596,822.581 614.5,822.5C 600.474,821.604 588.141,816.604 577.5,807.5C 584.38,800.321 592.713,795.988 602.5,794.5 Z"/></g>
<g><path style="opacity:1" fill="#f6f9f4" d="M 306.5,798.5 C 315.04,797.141 322.707,798.975 329.5,804C 324.085,804.783 318.419,805.783 312.5,807C 318.175,807.366 323.841,807.2 329.5,806.5C 329.559,810.548 327.892,813.715 324.5,816C 310.383,823.324 296.383,822.991 282.5,815C 281.549,814.282 281.383,813.449 282,812.5C 289.409,806.383 297.576,801.716 306.5,798.5 Z"/></g>
<g><path style="opacity:1" fill="#f6f9f4" d="M 463.5,802.5 C 478.233,802.344 490.067,808.01 499,819.5C 500.94,822.928 502.106,826.594 502.5,830.5C 495.779,828.304 489.779,824.804 484.5,820C 483.833,819.333 483.167,819.333 482.5,820C 487.486,824.161 492.819,827.827 498.5,831C 499.337,832.011 499.67,833.178 499.5,834.5C 479.199,833.548 466.199,823.215 460.5,803.5C 461.791,803.737 462.791,803.404 463.5,802.5 Z"/></g>
<g><path style="opacity:1" fill="#f6f9f4" d="M 532.5,814.5 C 547.921,812.363 561.088,816.696 572,827.5C 574.05,830.148 575.216,833.148 575.5,836.5C 566.509,834.557 557.509,833.057 548.5,832C 556.327,835.331 564.327,838.165 572.5,840.5C 570.543,842.485 568.21,843.985 565.5,845C 553.3,848.048 541.966,846.048 531.5,839C 524.263,834.765 517.929,829.431 512.5,823C 518.889,819.3 525.556,816.466 532.5,814.5 Z"/></g>
<g><path style="opacity:1" fill="#f6f9f4" d="M 359.5,815.5 C 362.85,815.335 366.183,815.502 369.5,816C 371.002,816.583 372.335,817.416 373.5,818.5C 367.112,820.528 361.112,823.361 355.5,827C 356,827.167 356.5,827.333 357,827.5C 363.263,824.45 369.763,822.116 376.5,820.5C 374.956,834.216 367.289,842.383 353.5,845C 347.167,845.667 340.833,845.667 334.5,845C 332.238,844.358 330.071,843.525 328,842.5C 327.48,840.711 327.813,839.044 329,837.5C 337.319,827.289 347.486,819.956 359.5,815.5 Z"/></g>
<g><path style="opacity:1" fill="#f7f8f4" d="M 658.5,816.5 C 660.39,816.297 661.89,816.963 663,818.5C 672.896,836.055 671.063,852.389 657.5,867.5C 651.945,873.948 645.279,878.948 637.5,882.5C 634.635,874.285 633.302,865.785 633.5,857C 632.972,842.395 637.972,830.061 648.5,820C 650.146,818.599 651.813,818.432 653.5,819.5C 650.288,828.616 648.454,837.949 648,847.5C 651.81,837.237 655.31,826.903 658.5,816.5 Z"/></g>
<g><path style="opacity:1" fill="#f6f8f4" d="M 434.5,829.5 C 447.62,828.051 459.286,831.384 469.5,839.5C 455.965,842.255 442.632,845.755 429.5,850C 441.87,849.544 454.203,848.377 466.5,846.5C 468.167,846.833 469.833,847.167 471.5,847.5C 465.067,859.57 455.067,867.07 441.5,870C 423.266,873.128 405.6,871.128 388.5,864C 386.777,863.477 385.444,862.477 384.5,861C 397.935,845.404 414.601,834.904 434.5,829.5 Z"/></g>
<g><path style="opacity:1" fill="#f6f8f4" d="M 601.5,841.5 C 602.978,841.238 604.311,841.571 605.5,842.5C 600.439,847.627 596.106,853.293 592.5,859.5C 596.59,854.895 601.257,850.062 606.5,845C 607.5,844.333 608.5,844.333 609.5,845C 613.039,859.935 608.039,871.268 594.5,879C 588.664,882.667 582.331,884.834 575.5,885.5C 576.001,869.476 582.001,855.976 593.5,845C 596.158,843.522 598.825,842.355 601.5,841.5 Z"/></g>
<g><path style="opacity:1" fill="#f6f9f4" d="M 486.5,853.5 C 490.846,853.334 495.179,853.501 499.5,854C 501.286,854.196 502.619,855.029 503.5,856.5C 496.031,859.4 489.364,863.567 483.5,869C 489.446,867.197 495.113,864.53 500.5,861C 502.436,860.187 504.436,859.687 506.5,859.5C 506.887,864.08 506.053,868.414 504,872.5C 496.106,883.455 485.439,890.121 472,892.5C 464.192,893.586 456.359,893.753 448.5,893C 455.328,874.664 467.994,861.497 486.5,853.5 Z"/></g>
<g><path style="opacity:1" fill="#f6f9f4" d="M 537.5,858.5 C 541.555,858.176 545.555,858.509 549.5,859.5C 543.519,864.313 537.686,869.313 532,874.5C 531.333,875.167 531.333,875.833 532,876.5C 538.412,870.92 545.246,865.92 552.5,861.5C 554.466,864.549 554.966,867.882 554,871.5C 549.526,883.974 541.026,892.474 528.5,897C 520.715,899.64 512.715,901.14 504.5,901.5C 509.197,882.159 520.197,867.826 537.5,858.5 Z"/></g>
</svg>
